<svg width="240" height="240" viewBox="0 0 240 240" fill="none" xmlns="http://www.w3.org/2000/svg">
  <defs>
    <linearGradient id="bg" x1="32" y1="24" x2="208" y2="216" gradientUnits="userSpaceOnUse">
      <stop stop-color="#FFF4D6"/>
      <stop offset="1" stop-color="#9CC7FF"/>
    </linearGradient>
    <linearGradient id="face" x1="78" y1="84" x2="162" y2="168" gradientUnits="userSpaceOnUse">
      <stop stop-color="#FFFFFF"/>
      <stop offset="1" stop-color="#EDF5FF"/>
    </linearGradient>
  </defs>
  <circle cx="120" cy="120" r="104" fill="url(#bg)"/>
  <circle cx="120" cy="120" r="94" stroke="rgba(255,255,255,0.45)" stroke-width="4"/>
  <rect x="70" y="64" width="100" height="112" rx="40" fill="url(#face)"/>
  <path d="M90 72C102 58 138 58 150 72" stroke="#203247" stroke-width="8" stroke-linecap="round"/>
  <circle cx="98" cy="116" r="9" fill="#203247"/>
  <circle cx="142" cy="116" r="9" fill="#203247"/>
  <path d="M102 142C111 152 129 152 138 142" stroke="#203247" stroke-width="8" stroke-linecap="round"/>
  <path d="M58 164C71 139 93 126 120 126C147 126 169 139 182 164" stroke="#203247" stroke-width="8" stroke-linecap="round"/>
  <circle cx="62" cy="86" r="10" fill="#FFFFFF" fill-opacity="0.62"/>
  <circle cx="178" cy="74" r="7" fill="#FFFFFF" fill-opacity="0.72"/>
  <circle cx="186" cy="168" r="12" fill="#FFFFFF" fill-opacity="0.45"/>
</svg>
